<svg width="937" height="263" viewBox="0 0 937 263" fill="none" xmlns="http://www.w3.org/2000/svg">
<path d="M712.347 59.0117C716.556 58.8902 740.813 58.2201 742.183 61.7725C741.334 65.3709 733.426 68.7216 731.11 72.79C724.857 83.7908 719.247 95.5023 713.505 106.779C687.766 158.518 662.514 210.495 637.74 262.705C630.911 253.829 621.686 228.896 616.141 218.095C595.394 177.692 576.25 136.559 555.578 96.0869C543.925 77.3211 546.718 67.8621 524.49 59.3584C531.193 58.6483 539.148 59.3534 546.657 59.2217C554.504 59.6129 563.8 58.3902 571.365 60.2939C573.029 60.7133 578.242 73.3298 579.212 75.417L589.516 97.0811C602.655 124.879 616.127 152.519 629.922 179.995L642.006 204.118C644.307 208.668 647.35 215.173 650.153 219.146C658.619 208.2 664.628 187.743 671.485 175.149C681.099 157.5 689.172 138.869 697.769 120.727C699.451 117.182 702.095 113.064 703.454 109.56C708.235 97.146 714.911 85.5211 718.675 72.7627C721.074 64.6252 713.275 62.4896 712.347 59.0117ZM222.905 59.2705C228.796 59.2395 242.166 58.8751 247.467 59.8643C234.604 64.2868 231.697 67.517 231.301 81.2246C231.009 91.3394 231.094 101.441 231.121 111.562L231.221 161.299L231.046 207.939C230.992 217.087 230.683 226.322 231.076 235.462C231.214 238.668 231.496 241.784 232.55 244.841C233.655 248.047 235.623 251.232 238.761 252.751C249.53 257.965 299.723 255.263 312.084 250.878C317.196 249.065 322.199 246.263 326.225 242.625C328.372 240.684 330.561 238.454 332.178 236.055C333.307 234.378 334.246 232.299 335.632 230.84C336.242 230.198 336.776 229.748 337.678 229.636C339.992 231.859 334.074 256.382 332.277 259.736C321.999 261.156 308.359 260.579 297.64 260.539C278.629 260.612 259.618 260.462 240.61 260.089C223.601 259.879 198.343 261.137 182.089 259.02C187.155 257.979 191.529 257.273 195.319 253.399C198.071 250.361 199.491 246.068 199.727 242.012C200.413 230.184 200.411 218.322 200.388 206.478L200.371 162.352L200.349 111.568C200.339 101.881 201.185 78.3245 198.261 70.0586C195.429 63.88 191.123 61.6326 184.916 59.21C197.578 59.3479 210.242 59.3681 222.905 59.2705ZM78.0244 59.2744C98.3846 59.0849 120.735 58.6278 140.978 59.3154C142.125 66.3985 141.796 76.5852 141.754 83.9531C141.788 87.257 141.873 90.6874 141.798 93.9805C141.04 91.6106 140.156 87.4492 139.509 85.7051V85.7061C134.905 74.6977 130.743 70.5727 119.113 67.0967C117.339 66.6821 115.477 66.3228 113.686 65.9541C105.968 63.5751 63.2629 64.1119 53.9629 64.6143C51.2434 64.8272 49.7953 64.8401 47.0703 64.6934L47.0156 151.823L79.4238 151.704C89.4452 151.69 107.593 152.977 115.994 145.835C117.94 144.18 119.558 139.734 121.51 137.644C123.572 143.317 122.257 168.42 121.818 175.552C119.213 169.882 117.59 164.783 111.504 162.083C98.7361 156.419 84.8806 159.08 71.3975 158.801C63.1851 158.631 54.8265 158.042 46.6338 158.411C47.5511 185.873 45.6455 213.356 46.9805 240.757C47.8661 258.932 73.5414 255.887 86.1016 255.876C106.379 255.858 134.536 256.389 148.557 239.074C151.634 235.273 154.711 230.289 157.75 226.209C157.656 231.881 153.627 255.506 149.799 258.841C144.235 260.806 121.063 260.483 114.155 260.483C95.1124 260.473 76.0703 260.335 57.0293 260.069C41.352 259.995 14.6813 260.937 0 259.209C0.683344 259.09 1.36509 258.962 2.04492 258.824C12.579 256.669 15.5406 247.804 15.9756 238.126C17.4639 202.573 15.8075 167.208 16.125 131.627C16.294 112.686 16.9554 91.992 14.4551 73.2061C13.6222 66.9481 7.97391 62.5446 2.99316 59.2988L78.0244 59.2744ZM417.656 59.457C428.623 59.6123 499.688 57.8996 502.365 60.0342C504.357 64.6741 503.134 87.5717 503.232 93.7822C496.117 74.273 489.967 66.8336 467.743 65.0977C447.841 63.5424 428.026 63.6981 408.08 64.6221C408.476 68.3984 408.088 76.766 408.21 81.166C408.664 97.5298 407.829 113.701 408.437 130.153C408.697 137.184 408.142 144.699 408.504 151.874C415.079 152.119 425.377 152.075 432.799 151.783C444.586 151.319 467.626 153.65 477.029 146.155C478.909 144.655 481.075 140.225 482.584 139.646C484.801 141.011 483.287 170.391 483.269 174.559C477.601 166.127 476.279 161.684 464.758 159.539C457.441 158.177 448.666 158.471 441.143 158.42L408.754 158.241C407.231 161.79 408.551 194.151 408.51 200.548C408.434 212.19 407.81 223.915 408.1 235.558C408.162 238.066 408.362 240.622 408.941 243.068C409.793 246.661 411.898 250.577 415.146 252.546C424.859 258.434 474.255 255.849 485.758 252.92C502.6 248.632 510.498 239.377 518.992 225.104C519.292 235.311 515.594 244.467 513.597 254.397C513.264 256.047 512.744 257.723 512.097 259.278C502.272 260.633 484.853 260.258 474.526 260.229L424.968 260.104C403.038 259.863 382.845 261.28 360.694 259.047L360.978 258.975C373.75 255.675 377.6 249.083 377.812 236.371C378.219 211.909 377.64 187.438 377.628 162.964L377.872 115.707C377.989 103.331 378.518 85.9887 376.559 73.8096C375.416 66.7132 371.502 63.3743 365.657 60.0381C366.396 59.9335 367.137 59.8393 367.879 59.7549C378.151 58.5968 407.492 59.3126 417.656 59.457ZM779.505 58.7305C784.792 58.5954 789.812 59.1923 795.104 59.2383C799.201 59.5769 805.38 59.3721 809.636 59.3955C822.957 59.4696 836.017 58.8493 849.376 58.8887C853.726 59.2433 858.156 59.2549 862.52 59.207C880.257 59.011 897.958 59.8432 915.69 59.1758C917.129 59.1214 918.817 59.2345 920.261 59.3086C920.804 61.2635 921.475 77.5898 921.273 79.8906C920.978 81.1294 920.809 82.5358 919.871 83.3477L918.526 83.2441C917.692 82.1977 918.081 82.3655 916.951 82.2051C913.773 76.4162 912.306 73.9271 906.704 70.2803C904.182 68.611 896.804 65.9527 893.743 65.8936C891.905 65.3439 886.932 65.1489 884.795 65.0049C865.07 64.2765 845.767 64.9874 826.558 64.4063C826.178 83.9801 826.084 103.559 826.276 123.136C826.347 128.756 826.149 139.694 826.618 145.042C826.553 147.261 826.67 150.097 826.703 152.366C830.706 152.564 837.779 152.434 841.806 152.106C856.862 150.882 888.1 156.468 897.854 142.819C898.567 141.031 899.204 139.398 899.813 137.569C900.943 144.61 901.07 168.783 900.287 176.045C897.69 169.3 896.045 164.534 888.878 161.493C880.651 158.004 872.219 158.183 863.472 158.239C851.092 158.319 838.988 158.547 826.618 157.953L826.117 214.516C826.117 222.272 825.653 235.624 827.115 242.659C827.729 245.681 829.216 248.454 831.391 250.637C836.491 255.829 845.711 255.924 851.81 255.896C879.784 255.77 915.231 260.302 932.186 232.393C933.001 231.052 935.092 228.597 936.235 227.389C935.523 236.353 932.528 250.644 928.698 258.737C921.142 260.185 909.583 259.922 901.562 259.962L861.873 260.036L820.131 260.098C811.398 260.136 801.784 260.491 793.079 259.959C787.895 260.2 781.544 259.693 776.317 259.318C779.528 258.87 782.406 258.574 785.49 257.5C798.193 249.072 795.723 229.455 795.686 215.851L795.184 171.423C795.123 156.45 795.006 141.472 795.156 126.32C795.334 107.937 796.628 87.3051 792.901 69.1631C791.997 64.7636 783.536 60.9941 779.505 58.7305ZM921.273 79.8945C921.686 83.3729 921.845 90.8684 921.732 94.5772C920.176 90.5121 918.606 86.2131 916.951 82.208C918.081 82.3684 917.692 82.2008 918.526 83.2471L919.872 83.3516C920.809 82.5396 920.978 81.1332 921.273 79.8945ZM763.84 0.465825C765.223 0.0404717 766.499 -0.135687 767.519 0.116216C769.787 2.3056 768.371 5.2963 767.42 7.94727C763.965 14.109 761.303 26.4172 760 28.2813C759.189 29.295 758.903 29.7356 757.464 29.9189C743.926 31.6474 730.422 33.3968 717.039 36.1768C711.086 37.414 704.96 40.5354 699.049 41.7578C690.513 43.5481 683.439 46.5538 675.451 49.4365C671.064 51.0192 657.41 57.3378 654.072 57.5869L653.744 57.1611C656.03 54.8518 681.522 42.4136 686.565 39.8555L753.625 5.59864C755.855 4.38074 759.581 2.01385 762.903 0.784184C763.22 0.667088 763.532 0.560335 763.84 0.465825ZM897.676 12.1143C897.194 12.8039 888.855 23.1543 889.089 22.9961C878.936 29.7867 866.641 31.6683 855.906 38.2881C855.259 37.13 855.348 37.6264 855.615 36.3145C859.075 32.178 874.323 18.2638 879.339 15.8447C881.697 14.7066 894.075 12.3211 897.418 11.6484L897.676 12.1143Z" fill="url(#paint0_linear_49_18)"/>
<defs>
<linearGradient id="paint0_linear_49_18" x1="131.5" y1="71.4096" x2="936" y2="228.411" gradientUnits="userSpaceOnUse">
<stop stop-color="#BB8D42"/>
<stop offset="1" stop-color="#55401E"/>
</linearGradient>
</defs>
</svg>
