<svg id="Image" height="512" viewBox="0 0 64 64" width="512" xmlns="http://www.w3.org/2000/svg"><g><g><path d="m32 41c-5.3 0-10.4-5-11.9-11.4-1.4-.5-3.1-2-3.1-5.6 0-1 .2-1.9.5-2.7.3-.7.9-1.2 1.6-1.4 1.8-.5 6.5-4.4 6.9-8.1 0-.4.3-.7.7-.8s.8 0 1.1.4c3.1 4.2 11.8 8.3 16.6 8.6.9.1 1.8.6 2.1 1.5.3.7.5 1.5.5 2.5 0 3.6-1.8 5.1-3.1 5.6-1.5 6.4-6.6 11.4-11.9 11.4zm-4.5-26.9c-1.5 4-5.9 7.3-7.8 7.8-.1 0-.3.1-.3.3-.2.3-.4.9-.4 1.8 0 3.4 1.9 3.8 2.1 3.8.4.1.8.4.9.8 1.2 6.4 6.1 10.4 10 10.4s8.8-4 10-10.4c.1-.4.4-.8.9-.8.2 0 2.1-.4 2.1-3.8 0-.9-.2-1.4-.3-1.7-.1-.2-.2-.3-.4-.3-4.8-.3-12.7-3.8-16.8-7.9z" fill="rgb(0,0,0)"/></g><g><path d="m60 63c-.6 0-1-.4-1-1 0-3.8-2.4-7.4-6.8-10.2-.5-.3-.6-.9-.3-1.4s.9-.6 1.4-.3c6.7 4.3 7.7 9.3 7.7 11.9 0 .6-.4 1-1 1z" fill="rgb(0,0,0)"/></g><g><path d="m4 63c-.6 0-1-.4-1-1 0-4.2 2.4-8.1 6.8-11.2.6-.4 1.3-.9 2-1.2.5-.3 1.1-.1 1.4.4s.1 1.1-.4 1.4c-.6.4-1.2.7-1.8 1.1-5 3.4-6 7-6 9.5 0 .6-.4 1-1 1z" fill="rgb(0,0,0)"/></g><g><path d="m10.3 52.7c-.6 0-1-.4-1-1 0-9.7 2.5-20.5 4.1-27 .5-1.9.8-3.5 1-4.5 1.9-10.6 6.6-15 9.2-16.6 2.1-1.3 4.4-1.9 6.3-1.6.7-.4 2.5-1 5.1-1 13.1 0 16 22.2 16 30 0 1.4.2 3 .4 4.8.3 2.2.6 4.7.6 7.2 0 .6-.4 1-1 1s-1-.4-1-1c0-2.4-.3-4.8-.6-6.9-.2-1.9-.4-3.6-.4-5.1 0-5.9-2.4-28-14-28-2.9 0-4.5.9-4.5.9-.2.1-.5.1-.8.1-1.1-.3-3-.1-5.1 1.2-2.3 1.5-6.5 5.5-8.3 15.3-.2 1.1-.6 2.6-1 4.6-1.5 6.4-4 17.2-4 26.6 0 .5-.4 1-1 1z" fill="rgb(0,0,0)"/></g><g><path d="m50 63c-11.4 0-13-10.1-13-21 0-.6.4-1 1-1s1 .4 1 1c0 10.8 1.6 17.9 9 18.9-.5-1-1-2.3-1-3.9 0-3.6.9-6.2 1.7-8.6.7-1.9 1.3-3.6 1.3-5.4 0-.6.4-1 1-1s1 .4 1 1c0 2.2-.7 4.1-1.4 6.1-.8 2.3-1.6 4.6-1.6 7.9 0 2.5 1.7 4.3 1.7 4.3.3.3.3.7.2 1.1s-.5.6-.9.6z" fill="rgb(0,0,0)"/></g><g><path d="m14 63c-.4 0-.8-.2-.9-.6-.2-.4-.1-.8.2-1.1 0 0 1.7-1.7 1.7-4.3 0-3.1-.3-5.5-.6-7.7-.2-1.9-.4-3.6-.4-5.6 0-2.4.3-4.9 1-8 .1-.5.7-.9 1.2-.8s.9.7.8 1.2c-.7 2.9-1 5.3-1 7.5 0 1.8.2 3.5.4 5.3.3 2.2.6 4.7.6 7.9 0 1.6-.5 2.9-1 3.9 7.4-1 9-8.1 9-18.9 0-.6.4-1 1-1s1 .4 1 1c0 11.1-1.6 21.2-13 21.2z" fill="rgb(0,0,0)"/></g><g><path d="m32 61c-.1 0-.3 0-.4-.1-2.1-.9-4-2.4-5.4-4.3-.3-.4-.2-1.1.2-1.4s1.1-.2 1.4.2c1.1 1.5 2.5 2.7 4.2 3.5 1.7-.8 3.1-2 4.2-3.5.3-.4 1-.5 1.4-.2s.5 1 .2 1.4c-1.4 1.9-3.3 3.4-5.4 4.3-.1.1-.3.1-.4.1z" fill="rgb(0,0,0)"/></g></g></svg>