<svg id="Capa_1" enable-background="new 0 0 512.002 512.002" height="512" viewBox="0 0 512.002 512.002" width="512" xmlns="http://www.w3.org/2000/svg"><g><path d="m510.996 236.775c-2.072-3.588-6.659-4.814-10.245-2.745l-55.443 32.011c-36.168-16.185-50.92 2.762-54.797 9.479-2.184 3.783-5.992 12.493-3.18 23.528-10.424-4.572-19.954-6.593-28.437-6.007-11.306.784-20.497 6.352-25.88 15.676-4.195 7.266-5.243 15.392-3.155 23.445-10.404-4.553-19.918-6.567-28.369-5.979-11.306.785-20.497 6.352-25.88 15.676-4.303 7.453-5.301 15.811-2.992 24.066-35.544-15.982-50.468 1.906-54.714 8.968l-50.598 29.213c-15.838 9.147-24.929 1.08-29.766-7.297-4.836-8.376-7.275-20.281 8.563-29.426l40.651-23.471c3.587-2.071 4.816-6.658 2.745-10.245s-6.66-4.815-10.245-2.745l-68.775 39.708c-6.626 3.825-12.616 4.95-17.806 3.347-5.849-1.808-9.731-6.786-11.959-10.644-4.821-8.351-7.263-20.206 8.413-29.339l63.698-36.776c3.587-2.071 4.816-6.658 2.745-10.245s-6.66-4.815-10.245-2.745l-71.66 41.372c-6.626 3.824-12.616 4.949-17.806 3.347-5.849-1.808-9.731-6.786-11.959-10.644-4.836-8.376-7.275-20.281 8.563-29.426l164.4-94.917c3.587-2.071 4.816-6.658 2.745-10.245-2.072-3.587-6.659-4.815-10.245-2.745l-146.75 84.728-10.225-5.904 63.286-109.613c1.345.247 2.707.378 4.071.378 3.868 0 7.736-.996 11.188-2.989l47.169-27.233c29.021-16.754 60.021-18.076 85.051-3.625l19.409 11.206c3.587 2.069 8.174.842 10.245-2.745s.842-8.174-2.745-10.245l-13.041-7.529c18.441-2.167 38.369 2.251 56.881 12.938l47.169 27.233c3.452 1.993 7.32 2.989 11.188 2.989 3.883 0 7.768-1.004 11.229-3.013l54.718-31.744c3.583-2.078 4.802-6.668 2.724-10.251-2.078-3.582-6.666-4.804-10.251-2.724l-54.718 31.744c-2.279 1.322-5.11 1.324-7.39.008l-47.169-27.233c-27.877-16.094-58.848-19.812-85.459-10.368-26.552-9.307-57.396-5.768-85.342 10.368l-47.169 27.233c-.863.498-1.805.806-2.766.927-.549-4.528-3.126-8.757-7.37-11.208l-23.401-13.51c-.003-1.293-.157-2.594-.501-3.876-1.037-3.87-3.52-7.105-6.989-9.108l-71.154-41.081c-3.586-2.07-8.175-.843-10.245 2.745-2.071 3.587-.842 8.174 2.745 10.245l71.152 41.082-42.1 72.92c-2.071 3.587-.842 8.174 2.745 10.245 3.587 2.07 8.175.842 10.245-2.745l38.351-66.426 21.651 12.5-66.398 115.005-21.65-12.5 13.746-23.81c2.071-3.587.842-8.174-2.745-10.245-3.59-2.071-8.176-.843-10.245 2.745l-17.497 30.306c-2.071 3.587-.842 8.174 2.745 10.245l43.862 25.323-2.649 1.529c-19.833 11.451-25.219 30.577-14.054 49.916 5.118 8.864 12.214 14.907 20.52 17.475 2.965.916 6.772 1.581 11.282 1.294-1.814 8.196-.215 17.204 5.014 26.26 5.118 8.864 12.214 14.907 20.52 17.475 6.423 1.984 16.795 2.784 29.735-4.688l.877-.507c-.339 6.777 1.522 13.971 5.693 21.195 11.164 19.338 30.421 24.237 50.256 12.787l1.455-.84c-.339 6.775 1.522 13.971 5.693 21.194 5.117 8.864 12.213 14.907 20.519 17.475 2.491.77 5.575 1.361 9.173 1.361 5.681 0 12.641-1.475 20.563-6.049l21.553-12.444c10.061 5.536 21.404 11.788 22.542 12.444 7.923 4.574 14.883 6.049 20.563 6.049 3.597 0 6.682-.592 9.172-1.361 8.306-2.567 15.401-8.61 20.52-17.475 4.173-7.227 6.016-14.421 5.675-21.199l1.484.851c7.091 4.091 14.105 6.093 20.704 6.092 11.857 0 22.369-6.465 29.541-18.886 4.171-7.224 6.029-14.417 5.689-21.193l.889.51c7.92 4.571 14.876 6.044 20.556 6.044 3.597 0 6.682-.592 9.172-1.361 8.306-2.567 15.401-8.61 20.52-17.475 5.229-9.057 6.814-18.063 4.997-26.262.727.047 1.437.069 2.127.069 3.597 0 6.682-.592 9.172-1.361 8.306-2.567 15.401-8.61 20.52-17.475 11.165-19.338 5.779-38.465-14.054-49.916-.988-.571-1.866-1.077-2.649-1.53l47.349-27.338c3.586-2.069 4.816-6.656 2.744-10.243zm-286.286 200.471c-6.626 3.825-12.618 4.949-17.807 3.347-5.849-1.808-9.73-6.786-11.958-10.644-4.818-8.347-7.26-20.194 8.391-29.326l10.365-5.984c.46 3.656 1.555 7.328 3.315 10.931 4.067 8.327 11.441 16.185 21.965 23.437zm88.86-7.297c-2.228 3.857-6.11 8.836-11.959 10.644-5.187 1.606-11.18.479-17.807-3.348-1.965-1.134-26.125-14.419-29.23-16.126-12.099-6.996-20.424-14.647-24.079-22.132-2.794-5.72-2.744-11.159.147-16.167 6.64-11.498 23.537-10.895 45.2 1.614.042.024.085.049.127.072l29.099 16.052c15.771 9.14 13.332 21.026 8.502 29.391zm57.404-33.142c-4.837 8.376-13.927 16.44-29.766 7.297-.006-.004-.013-.007-.019-.011l-28.59-16.399c-12.135-7.006-20.483-14.672-24.146-22.17-2.794-5.72-2.744-11.159.147-16.167s7.577-7.771 13.928-8.212c.607-.042 1.227-.062 1.859-.062 8.048 0 18.164 3.395 29.431 9.899l28.591 16.399c15.84 9.145 13.401 21.05 8.565 29.426zm56.825-33.475c-2.228 3.857-6.11 8.836-11.959 10.644-5.188 1.607-11.181.479-17.806-3.347-.006-.004-.013-.007-.019-.011l-28.013-16.066c-12.135-7.006-20.484-14.672-24.146-22.169-2.794-5.72-2.744-11.159.147-16.167 2.892-5.009 7.577-7.771 13.928-8.212.607-.042 1.226-.063 1.859-.063 8.048 0 18.164 3.396 29.431 9.9l28.014 16.065c15.84 9.145 13.4 21.05 8.564 29.426zm36.816-45.029c-2.228 3.857-6.11 8.836-11.959 10.644-5.188 1.606-11.181.479-17.806-3.347l-7.351-4.244c-21.665-12.508-30.636-26.839-23.998-38.337 6.614-11.456 23.415-10.898 44.971 1.482l7.579 4.376c15.839 9.145 13.399 21.051 8.564 29.426z"/><path d="m337.014 142.036-18.558-10.714c-3.589-2.07-8.175-.843-10.245 2.745-2.071 3.587-.842 8.174 2.745 10.245l18.558 10.714c8.108 4.682 12.499 14.029 10.926 23.26-2.913 17.091-1.676 39.468-.682 57.448.227 4.101.44 7.974.584 11.42.506 12.218-7.041 17.847-13.657 18.955-12.545 2.097-21.737-8.925-25.281-20.782-5.938-19.868-8.332-38.889-7.114-56.533.197-2.859-1.253-5.581-3.735-7.014l-1.391-.802c-16.75-9.671-31.717-13.371-47.097-11.628-4.116.465-7.076 4.178-6.61 8.294.465 4.116 4.185 7.092 8.294 6.61 11.281-1.273 22.563 1.355 35.325 8.267-.646 18.07 2.024 37.254 7.957 57.101 6.689 22.383 22.448 31.725 36.772 31.724 1.815 0 3.609-.15 5.357-.442 16.133-2.702 26.893-16.835 26.166-34.37-.146-3.549-.363-7.473-.593-11.627-.953-17.229-2.139-38.673.491-54.101 2.623-15.386-4.696-30.966-18.212-38.77z"/><path d="m479.281 102.411c1.277 0 2.572-.326 3.757-1.014l25.228-14.636c3.583-2.078 4.802-6.668 2.724-10.251-2.078-3.582-6.666-4.803-10.251-2.724l-25.229 14.637c-3.583 2.078-4.802 6.668-2.724 10.251 1.392 2.398 3.908 3.737 6.495 3.737z"/></g></svg>