<svg id="Layer_1" enable-background="new 0 0 480 480" height="512" viewBox="0 0 480 480" width="512" xmlns="http://www.w3.org/2000/svg"><g><path d="m472 464h-155v-179c0-4.411 3.589-8 8-8h106c4.411 0 8 3.589 8 8v120.129c0 4.418 3.582 8 8 8s8-3.582 8-8v-120.129c0-13.233-10.767-24-24-24h-106c-2.805 0-5.496.488-8 1.376v-39.376c0-13.233-10.767-24-24-24h-106c-13.233 0-24 10.767-24 24v90.376c-2.504-.888-5.195-1.376-8-1.376h-106c-13.234 0-24 10.766-24 24v128h-17c-4.418 0-8 3.582-8 8s3.582 8 8 8h464c4.418 0 8-3.582 8-8s-3.581-8-8-8zm-431-128c0-4.411 3.589-8 8-8h106c4.411 0 8 3.589 8 8v96.097c0 4.418 3.582 8 8 8s8-3.582 8-8v-209.097c0-4.411 3.589-8 8-8h106c4.411 0 8 3.589 8 8v241h-260z"/><path d="m171.177 88.642 16.998 16.631-4.014 23.491c-3.359 19.662 17.245 34.62 34.822 25.345l24.714-13.042c3.908-2.062 5.403-6.901 3.341-10.809-2.063-3.907-6.901-5.403-10.809-3.341l-24.714 13.042c-5.87 3.098-12.71-1.905-11.583-8.499l4.72-27.624c.442-2.588-.414-5.229-2.291-7.066l-19.995-19.564c-4.767-4.665-2.156-12.785 4.422-13.745l27.631-4.031c2.608-.38 4.861-2.021 6.024-4.386l12.357-25.133c2.944-5.989 11.383-5.976 14.321 0l12.357 25.133c1.163 2.365 3.417 4.006 6.024 4.386l27.631 4.031c6.572.959 9.194 9.077 4.422 13.745l-19.994 19.564c-1.876 1.837-2.733 4.478-2.291 7.066l4.72 27.624c.675 3.953-1.47 6.846-3.703 8.235-3.752 2.334-4.901 7.267-2.567 11.019s7.268 4.899 11.019 2.567c8.353-5.196 12.68-14.819 11.023-24.516l-4.014-23.491 16.997-16.631c14.223-13.916 6.35-38.148-13.302-41.014l-23.465-3.423-10.5-21.354c-8.781-17.858-34.231-17.913-43.038 0l-10.499 21.354-23.465 3.423c-19.691 2.872-27.496 27.122-13.299 41.013z"/><path d="m157.876 20.013c2.873 3.326 7.925 3.727 11.284.825 3.344-2.888 3.713-7.94.825-11.284l-5.859-6.783c-2.888-3.344-7.941-3.713-11.284-.825-3.344 2.888-3.713 7.94-.825 11.284z"/><path d="m129.991 96.685c.572 0 .154.019 11.736-1.038 4.4-.401 7.642-4.294 7.24-8.694s-4.294-7.643-8.694-7.24l-11 1.004c-4.4.401-7.642 4.294-7.24 8.694.379 4.154 3.868 7.274 7.958 7.274z"/><path d="m147.223 176.252c2.36 3.761 7.303 4.862 11.028 2.525l8-5.019c3.743-2.348 4.874-7.286 2.525-11.028s-7.286-4.874-11.028-2.525l-8 5.019c-3.742 2.348-4.873 7.285-2.525 11.028z"/><path d="m310.765 20.837c3.328 2.875 8.382 2.535 11.284-.824l5.86-6.783c2.889-3.344 2.52-8.396-.824-11.284-3.343-2.889-8.395-2.52-11.284.824l-5.86 6.783c-2.888 3.344-2.519 8.396.824 11.284z"/><path d="m338.198 95.648c11.944 1.09 11.212 1.038 11.736 1.038 4.09 0 7.579-3.121 7.958-7.273.402-4.4-2.84-8.292-7.24-8.694l-11-1.004c-4.389-.401-8.292 2.839-8.694 7.24-.401 4.399 2.841 8.291 7.24 8.693z"/><path d="m311.149 162.73c-2.348 3.743-1.217 8.68 2.525 11.028l8 5.019c3.731 2.34 8.672 1.23 11.028-2.525 2.348-3.743 1.217-8.68-2.525-11.028l-8-5.019c-3.744-2.349-8.681-1.217-11.028 2.525z"/></g></svg>